<?xml version="1.0" standalone="no"?>
<!DOCTYPE svg PUBLIC "-//W3C//DTD SVG 20010904//EN"
 "http://www.w3.org/TR/2001/REC-SVG-20010904/DTD/svg10.dtd">
<svg version="1.0" xmlns="http://www.w3.org/2000/svg"
 width="196.000000pt" height="200.000000pt" viewBox="0 0 196.000000 200.000000"
 preserveAspectRatio="xMidYMid meet">
<metadata>
Created by potrace 1.12, written by Peter Selinger 2001-2015
</metadata>
<g transform="translate(0.000000,200.000000) scale(0.100000,-0.100000)"
fill="#000000" stroke="none">
<path d="M770 1163 c0 -29 34 -62 108 -104 49 -28 106 -39 147 -29 54 13 141
-63 170 -149 12 -38 22 -51 36 -51 24 0 24 5 0 39 -11 15 -35 57 -54 94 -43
85 -140 164 -228 187 -24 7 -49 16 -54 21 -6 4 -20 8 -30 8 -11 0 -37 2 -57 4
-35 4 -38 2 -38 -20z"/>
<path d="M1316 983 c4 -21 11 -46 15 -55 11 -21 12 -71 1 -84 -12 -13 6 -92
21 -90 16 2 63 49 59 59 -1 5 2 6 8 2 5 -3 10 -1 10 4 0 6 6 11 13 11 8 0 24
11 37 25 19 21 21 25 7 25 -20 0 -21 4 -7 31 8 13 7 19 0 19 -11 0 -8 16 8 59
3 8 -22 -13 -56 -47 -63 -63 -81 -75 -64 -46 10 19 4 54 -9 54 -5 0 -15 16
-23 35 -19 46 -29 45 -20 -2z"/>
<path d="M1216 691 c-3 -4 -19 -11 -35 -14 -29 -6 -46 -19 -132 -99 -23 -21
-47 -38 -56 -38 -8 0 -45 -14 -81 -31 -37 -17 -82 -33 -101 -36 l-33 -6 58
-33 c33 -18 64 -37 70 -43 22 -19 120 28 199 96 56 48 75 60 75 46 1 -10 7
-29 15 -43 12 -20 14 -22 15 -7 0 11 6 33 14 50 8 18 17 39 20 47 3 8 13 25
22 38 17 23 17 23 -11 16 -27 -7 -28 -6 -22 24 6 30 -6 52 -17 33z"/>
<path d="M635 334 c-33 -8 -100 -22 -150 -30 -169 -30 -249 -52 -265 -75 -8
-12 -34 -42 -56 -68 -23 -25 -51 -65 -63 -89 l-21 -42 200 0 199 0 14 28 c8
15 17 40 21 55 4 17 16 31 31 37 15 6 27 20 31 37 12 50 52 109 88 128 20 11
36 23 36 27 0 5 -1 8 -2 7 -2 0 -30 -7 -63 -15z"/>
</g>
</svg>
